<svg width="68" height="72" fill="none" xmlns="http://www.w3.org/2000/svg"><path d="M30.602 2.89a7 7 0 016.796 0l26.303 14.609a3.5 3.5 0 011.799 3.059V49.38a7 7 0 01-3.602 6.118l-24.5 13.616a7 7 0 01-6.797 0l-24.5-13.616A7 7 0 012.5 49.385V20.558a3.5 3.5 0 011.799-3.059L30.605 2.89h-.003z" stroke="url(#paint0_linear_1_53)" stroke-width="4" stroke-linecap="round" stroke-linejoin="round"/><path d="M18.25 9.75l31.5 17.5V39.5M13 37.148L23.5 43" stroke="url(#paint1_linear_1_53)" stroke-width="4" stroke-linecap="round" stroke-linejoin="round"/><path d="M2.5 18.5L34 36m0 0l31.5-17.5M34 36v35" stroke="url(#paint2_linear_1_53)" stroke-width="4" stroke-linejoin="round"/><defs><linearGradient id="paint0_linear_1_53" x1="2.5" y1="36.002" x2="65.5" y2="36.002" gradientUnits="userSpaceOnUse"><stop stop-color="#2AF598"/><stop offset="1" stop-color="#009EFD"/></linearGradient><linearGradient id="paint1_linear_1_53" x1="13" y1="26.375" x2="49.75" y2="26.375" gradientUnits="userSpaceOnUse"><stop stop-color="#2AF598"/><stop offset="1" stop-color="#009EFD"/></linearGradient><linearGradient id="paint2_linear_1_53" x1="2.5" y1="44.75" x2="65.5" y2="44.75" gradientUnits="userSpaceOnUse"><stop stop-color="#2AF598"/><stop offset="1" stop-color="#009EFD"/></linearGradient></defs></svg>