<svg width="64" height="69" fill="none" xmlns="http://www.w3.org/2000/svg"><path d="M31.759 2.203a5.249 5.249 0 017.423-.787l17.125 13.986a5.25 5.25 0 011.313 6.536A15.752 15.752 0 0053 21.25h-1.575l1.565-1.785-9.02-7.366-7.44 9.156h-6.767L39.901 8.781 35.86 5.48 23.269 21.25h-6.72L31.76 2.203zM45.124 47.5a2.625 2.625 0 000 5.25h5.25a2.625 2.625 0 000-5.25h-5.25zM5.75 23.875a2.625 2.625 0 012.625-2.625h2.93L15.478 16H8.375A7.875 7.875 0 00.5 23.875v31.5A13.125 13.125 0 0013.625 68.5H53A10.5 10.5 0 0063.5 58V37A10.5 10.5 0 0053 26.5H8.375a2.625 2.625 0 01-2.625-2.625zm0 31.5V31.304a7.898 7.898 0 002.625.446H53A5.25 5.25 0 0158.25 37v21A5.25 5.25 0 0153 63.25H13.625a7.875 7.875 0 01-7.875-7.875z" fill="url(#paint0_linear_1_62)"/><defs><linearGradient id="paint0_linear_1_62" x1=".5" y1="34.365" x2="63.5" y2="34.365" gradientUnits="userSpaceOnUse"><stop stop-color="#2AF598"/><stop offset="1" stop-color="#009EFD"/></linearGradient></defs></svg>