<svg width="78" height="78" fill="none" xmlns="http://www.w3.org/2000/svg"><path d="M66.783 25H70.5a7 7 0 017 7v14a7 7 0 01-7 7h-3.717A28.004 28.004 0 0139 77.5v-7a21 21 0 0021-21v-21a21 21 0 10-42 0V53H7.5a7 7 0 01-7-7V32a7 7 0 017-7h3.717a28.004 28.004 0 0155.566 0zM7.5 32v14H11V32H7.5zM67 32v14h3.5V32H67zM24.16 52.248l3.71-5.936A20.902 20.902 0 0039 49.5a20.902 20.902 0 0011.13-3.188l3.71 5.936A27.87 27.87 0 0139 56.5a27.87 27.87 0 01-14.84-4.252z" fill="url(#paint0_linear_1_69)"/><defs><linearGradient id="paint0_linear_1_69" x1=".5" y1="39.002" x2="77.5" y2="39.002" gradientUnits="userSpaceOnUse"><stop stop-color="#2AF598"/><stop offset="1" stop-color="#009EFD"/></linearGradient></defs></svg>