<svg width="56" height="59" fill="none" xmlns="http://www.w3.org/2000/svg"><path d="M28.188 26.688C28.188 32 25 39.438 25 39.438m1.063-10.626s3.187-8.5-4.25-14.875c-7.438-6.374-19.125-4.25-19.125-4.25s0 8.5 6.374 14.876c6.376 6.375 17 4.25 17 4.25zm4.25-6.375s-3.188-8.5 4.25-14.874C42 1.188 53.686 3.313 53.686 3.313s0 8.5-6.374 14.874c-6.376 6.375-17 4.25-17 4.25zm-17 14.875h27.624s2.126 19.126-13.812 19.126c-15.938 0-13.813-19.126-13.813-19.126z" stroke="url(#paint0_linear_1_201)" stroke-width="4" stroke-linecap="round" stroke-linejoin="round"/><defs><linearGradient id="paint0_linear_1_201" x1="2.688" y1="29.705" x2="53.688" y2="29.705" gradientUnits="userSpaceOnUse"><stop stop-color="#2AF598"/><stop offset="1" stop-color="#009EFD"/></linearGradient></defs></svg>