<svg width="64" height="64" fill="none" xmlns="http://www.w3.org/2000/svg"><path d="M32 2.25v4.463" stroke="url(#paint0_linear_1_172)" stroke-width="4" stroke-linecap="round" stroke-linejoin="round"/><path fill-rule="evenodd" clip-rule="evenodd" d="M53.038 10.963l-3.157 3.156 3.155-3.155.002-.002z" fill="url(#paint1_linear_1_172)"/><path d="M53.038 10.963l-3.157 3.156" stroke="url(#paint2_linear_1_172)" stroke-width="4" stroke-linecap="round" stroke-linejoin="round"/><path d="M61.75 32h-4.462" stroke="url(#paint3_linear_1_172)" stroke-width="4" stroke-linecap="round" stroke-linejoin="round"/><path fill-rule="evenodd" clip-rule="evenodd" d="M53.038 53.038L49.88 49.88l3.155 3.155.002.002z" fill="url(#paint4_linear_1_172)"/><path d="M53.038 53.038L49.88 49.88" stroke="url(#paint5_linear_1_172)" stroke-width="4" stroke-linecap="round" stroke-linejoin="round"/><path d="M32 61.75v-4.462" stroke="url(#paint6_linear_1_172)" stroke-width="4" stroke-linecap="round" stroke-linejoin="round"/><path fill-rule="evenodd" clip-rule="evenodd" d="M10.963 53.038l3.156-3.157-3.155 3.155-.002.002z" fill="url(#paint7_linear_1_172)"/><path d="M10.963 53.038l3.156-3.157" stroke="url(#paint8_linear_1_172)" stroke-width="4" stroke-linecap="round" stroke-linejoin="round"/><path d="M2.25 32h4.463" stroke="url(#paint9_linear_1_172)" stroke-width="4" stroke-linecap="round" stroke-linejoin="round"/><path fill-rule="evenodd" clip-rule="evenodd" d="M10.963 10.963l3.156 3.156-3.155-3.155-.002-.002z" fill="url(#paint10_linear_1_172)"/><path d="M10.963 10.963l3.156 3.156" stroke="url(#paint11_linear_1_172)" stroke-width="4" stroke-linecap="round" stroke-linejoin="round"/><path d="M32 49c9.388 0 17-7.612 17-17s-7.612-17-17-17-17 7.612-17 17 7.612 17 17 17z" stroke="url(#paint12_linear_1_172)" stroke-width="4" stroke-linejoin="round"/><defs><linearGradient id="paint0_linear_1_172" x1="32" y1="4.481" x2="33" y2="4.481" gradientUnits="userSpaceOnUse"><stop stop-color="#2AF598"/><stop offset="1" stop-color="#009EFD"/></linearGradient><linearGradient id="paint1_linear_1_172" x1="49.881" y1="12.541" x2="53.038" y2="12.541" gradientUnits="userSpaceOnUse"><stop stop-color="#2AF598"/><stop offset="1" stop-color="#009EFD"/></linearGradient><linearGradient id="paint2_linear_1_172" x1="49.881" y1="12.541" x2="53.038" y2="12.541" gradientUnits="userSpaceOnUse"><stop stop-color="#2AF598"/><stop offset="1" stop-color="#009EFD"/></linearGradient><linearGradient id="paint3_linear_1_172" x1="57.288" y1="32.5" x2="61.75" y2="32.5" gradientUnits="userSpaceOnUse"><stop stop-color="#2AF598"/><stop offset="1" stop-color="#009EFD"/></linearGradient><linearGradient id="paint4_linear_1_172" x1="49.881" y1="51.459" x2="53.038" y2="51.459" gradientUnits="userSpaceOnUse"><stop stop-color="#2AF598"/><stop offset="1" stop-color="#009EFD"/></linearGradient><linearGradient id="paint5_linear_1_172" x1="49.881" y1="51.459" x2="53.038" y2="51.459" gradientUnits="userSpaceOnUse"><stop stop-color="#2AF598"/><stop offset="1" stop-color="#009EFD"/></linearGradient><linearGradient id="paint6_linear_1_172" x1="32" y1="59.519" x2="33" y2="59.519" gradientUnits="userSpaceOnUse"><stop stop-color="#2AF598"/><stop offset="1" stop-color="#009EFD"/></linearGradient><linearGradient id="paint7_linear_1_172" x1="10.963" y1="51.459" x2="14.119" y2="51.459" gradientUnits="userSpaceOnUse"><stop stop-color="#2AF598"/><stop offset="1" stop-color="#009EFD"/></linearGradient><linearGradient id="paint8_linear_1_172" x1="10.963" y1="51.459" x2="14.119" y2="51.459" gradientUnits="userSpaceOnUse"><stop stop-color="#2AF598"/><stop offset="1" stop-color="#009EFD"/></linearGradient><linearGradient id="paint9_linear_1_172" x1="2.25" y1="32.5" x2="6.713" y2="32.5" gradientUnits="userSpaceOnUse"><stop stop-color="#2AF598"/><stop offset="1" stop-color="#009EFD"/></linearGradient><linearGradient id="paint10_linear_1_172" x1="10.963" y1="12.541" x2="14.119" y2="12.541" gradientUnits="userSpaceOnUse"><stop stop-color="#2AF598"/><stop offset="1" stop-color="#009EFD"/></linearGradient><linearGradient id="paint11_linear_1_172" x1="10.963" y1="12.541" x2="14.119" y2="12.541" gradientUnits="userSpaceOnUse"><stop stop-color="#2AF598"/><stop offset="1" stop-color="#009EFD"/></linearGradient><linearGradient id="paint12_linear_1_172" x1="15" y1="32" x2="49" y2="32" gradientUnits="userSpaceOnUse"><stop stop-color="#2AF598"/><stop offset="1" stop-color="#009EFD"/></linearGradient></defs></svg>