<svg width="120" height="25" fill="none" xmlns="http://www.w3.org/2000/svg"><path d="M21.284 8.55l-5.951-.864-2.66-5.393a.753.753 0 00-1.345 0l-2.66 5.393-5.952.865a.749.749 0 00-.414 1.28l4.305 4.197-1.017 5.927a.749.749 0 001.087.79L12 17.947l5.323 2.798a.749.749 0 001.087-.79l-1.017-5.927 4.305-4.198a.749.749 0 00.218-.429.747.747 0 00-.632-.85zm24 0l-5.951-.864-2.66-5.393a.753.753 0 00-1.345 0l-2.66 5.393-5.952.865a.748.748 0 00-.414 1.28l4.305 4.197-1.017 5.927a.749.749 0 001.087.79L36 17.947l5.323 2.798a.749.749 0 001.088-.79l-1.018-5.927 4.305-4.198a.748.748 0 00.218-.429.747.747 0 00-.632-.85zm24 0l-5.951-.864-2.66-5.393a.753.753 0 00-1.345 0l-2.66 5.393-5.952.865a.748.748 0 00-.414 1.28l4.305 4.197-1.017 5.927a.749.749 0 001.087.79L60 17.947l5.323 2.798a.749.749 0 001.088-.79l-1.018-5.927 4.305-4.198a.748.748 0 00.218-.429.747.747 0 00-.632-.85zm24 0l-5.951-.864-2.66-5.393a.753.753 0 00-1.345 0l-2.66 5.393-5.952.865a.748.748 0 00-.414 1.28l4.305 4.197-1.017 5.927a.749.749 0 001.087.79L84 17.947l5.323 2.798a.749.749 0 001.088-.79l-1.018-5.927 4.305-4.198a.748.748 0 00.218-.429.747.747 0 00-.632-.85zm24 0l-5.951-.864-2.66-5.393a.75.75 0 00-1.346 0l-2.66 5.393-5.95.865a.748.748 0 00-.415 1.28l4.305 4.197-1.017 5.927a.744.744 0 00.298.734.747.747 0 00.789.056L108 17.947l5.323 2.798a.75.75 0 001.087-.79l-1.017-5.927 4.305-4.198a.741.741 0 00.218-.429.746.746 0 00-.632-.85z" fill="#F2C94C"/></svg>